<?xml version="1.0" encoding="utf-8"?>
<!-- Generator: Adobe Illustrator 28.1.0, SVG Export Plug-In . SVG Version: 6.00 Build 0)  -->
<svg version="1.1" xmlns="http://www.w3.org/2000/svg" xmlns:xlink="http://www.w3.org/1999/xlink" x="0px" y="0px"
	 viewBox="0 0 1080 1080" style="enable-background:new 0 0 1080 1080;" xml:space="preserve">
<style type="text/css">
	.st0{fill:none;stroke:#3849EA;stroke-width:52;stroke-miterlimit:10;}
</style>
<g id="Layer_1">
	<g>
		<path class="st0" d="M1085.06,4.83c-19.34,20.27-52.82,34.72-80.12,62.13c-21.52,21.61-35.62,55.19-61.79,80.39
			c-22.68,21.84-56.66,34.72-82.65,58.74c-23.52,21.74-38.95,54.65-65.05,77.79c-47.86,42.45-99.83,68.16-139.11,100.53
			c-49.17,40.52-83.93,85.7-124.62,117.96c-46.4,36.79-98.04,60.18-141.07,97.89c-39.73,34.82-70.08,82.77-113.62,128.57
			c-22.25,23.4-57.98,41.78-85.43,74.05c-22.22,26.13-34.94,64-59.45,96.17c-21.32,27.98-54.66,50.09-77,82.79
			c-20.12,29.45-28.76,68.44-49.19,101.81"/>
	</g>
</g>
<g id="Layer_2">
</g>
</svg>
